Patient4_TMGait_0pt4_03_right_36_EMG.mot
version=1
nRows=23
nColumns=33
inDegrees=no
endheader
time	1LAddLong	2LGlutMax	3LGlutMed	4LIliopsoas	5LSemiMemb	6LBicFemLong	7LRecFem	8LVastMed	9LVastLat	10LGasMed	11LTibAnt	12lTibPost	13LPeroneusLong	14LSol	15LExtDigLong	16LFlexDigLong	17RAddLong	18RGlutMax	19RGlutMed	20RIliopsoas	21RSemiMemb	22RBicFemLong	23RRecFem	24RVastMed	25RVastLat	26RGasMed	27RTibAnt	28RTibPost	29RPeroneusLong	30RSol	31RExtDigLong	32RFlexDigLong
47.95	0.011292	-0.045013	-0.027466	0.014038	-0.056915	-0.045319	-0.001984	0.001526	0.005951	0.031586	0.013733	0.000916	0.049286	-0.041962	-0.097046	-0.008698	0.00946	0.14328	0.10849	0.003357	0.052338	-0.005493	-0.21805	-0.029907	0.036316	0.005035	-0.27161	-0.00351	-0.053253	-0.061188	-0.000916	-0.00061
47.951	0.012054	-0.072632	-0.016632	0.002136	-0.024414	-0.15427	0.030365	0.036316	-0.005188	0.035248	0.03891	0.003662	0.029144	-0.054321	0.054016	0.007629	0.001984	0.061493	-0.38391	0.078888	0.048828	-0.016479	-0.079498	-0.020599	0.010376	0.012665	-0.17441	-0.005188	0.13107	-0.033722	0.000305	0.003204
47.952	-0.001221	-0.051422	-0.018311	-0.004272	-0.015259	-0.2243	0.059204	0.004883	-0.045319	0.02182	0.026398	0.005188	0.029144	-0.034637	0.09964	0.001526	0.006104	0.094452	0.030212	0.077209	0.045013	0	-0.11505	-0.008545	0.018768	-0.002899	-0.070496	-0.001526	0.27786	0.032654	0.004425	-0.008545
47.953	-0.006409	-0.025635	-0.036621	-0.005646	-0.022888	-0.16495	0.070496	0.05661	-0.06134	0.029602	0.010071	0.011139	0.045319	-0.025482	0.095825	-0.001221	0.003204	0.090332	0.63232	0.12695	0.050964	-0.005493	-0.14755	-0.01236	0.009918	-0.023346	-0.016174	-0.00412	0.12039	0.034332	0.002136	-0.01236
47.954	-0.012054	-0.038757	-0.023499	-0.009308	0.000153	-0.079346	0.042877	0.041199	-0.006866	0.014038	0.00412	0.003662	0.049438	-0.018005	0.11704	0.00412	0.023499	0.049286	0.45044	0.066833	0.045013	-0.004883	-0.18036	-0.030518	-0.000916	-0.037994	0.006104	0.000305	0.010834	-0.029755	-0.001526	-0.015717
47.955	-0.008087	-0.045013	-0.051422	-0.008087	0.003815	-0.054016	-0.028534	0.048828	0.065918	0.008698	0.003815	0.008545	0.058746	0.008698	0.093231	0.006866	0.003204	0.011749	-0.20264	0.055847	0.050964	-0.003967	-0.15289	-0.004578	-0.007782	-0.024109	0.022125	-0.006256	-0.04364	-0.16724	-0.001068	-0.0177
47.956	0.010834	-0.057373	-0.038757	-0.005798	-0.076294	-0.18249	-0.065765	0.027313	0.16907	0.016022	0.01709	0.006104	0.066528	0.009003	0.056458	0.001068	0.003967	0.032501	0.027008	0.045776	0.056763	-0.029602	-0.17181	-0.002594	-0.003052	-0.013275	0.032806	-0.00061	-0.042725	0.12482	-0.002289	-0.016174
47.957	0.028992	-0.022125	-0.022736	-0.011597	-0.062256	-0.49194	-0.1207	0.011139	0.27237	0.012054	0.014343	-0.002594	0.036621	0.023956	0.022278	0.003662	0.011292	0.024109	0.24872	-0.031281	0.046539	0.009155	-0.16098	-0.003204	-0.013885	-0.015564	0.023346	0.001373	0.050354	0.34256	-0.002594	-0.010834
47.958	0.048218	0.0177	-0.007935	0.008698	0.062561	-0.38513	-0.062103	-0.011292	0.21393	0.005798	0.01236	0.006866	0.034332	0.041199	0.036774	0.000153	0.007935	0.024567	0.38208	-0.15335	0.051575	0.006561	-0.19012	0.003052	-0.010986	-0.019989	0.040588	0.001221	0.044556	0.28778	-0.000153	-0.013733
47.959	0.039368	-0.006561	0.00473	0.010071	0.14008	-0.10712	-0.009308	-0.030975	0.11688	0.00946	0.02655	-0.000763	-0.021057	0.039063	0.058441	0.008392	0.010681	-0.012817	0.23987	-0.13794	0.061646	0.007019	-0.16739	-0.004425	-0.011444	-0.024414	0.042114	0.010681	-0.27313	0.077515	-0.000763	-0.010071
47.96	0.021973	-0.009766	-0.030365	-0.020142	0.078583	0.063171	-0.032501	-0.045929	0.10696	0.013733	0.013885	0.00351	-0.038452	0.022125	0.063019	0.00351	0.010834	-0.005798	0.092163	-0.038452	0.053406	0.001678	-0.18295	0.010681	0.010071	-0.013275	0.022278	0.01297	-0.2562	-0.35111	0	-0.016785
47.961	-0.001373	-0.041656	-0.042725	-0.014343	0.035706	0.075684	-0.06546	-0.046539	0.007477	0.015564	-0.024261	0.005341	0.011749	0.002289	0.064697	-0.001373	0.010071	0.031891	0.02594	-0.030365	0.036316	0.023193	-0.14481	-0.00885	-0.008392	-0.017548	0.006104	-0.032043	-0.10056	-0.21347	-0.002899	-0.014038
47.962	-0.002747	-0.045319	-0.045166	0.013885	0.00061	0.048828	-0.032501	-0.025482	-0.15503	0.007629	-0.039368	0.006561	-0.006866	0.01358	0.05188	0.011444	0.005798	0.027313	0.098114	-0.059509	0.041351	0.017395	-0.13245	0.021667	-0.008392	0.007935	0.02243	-0.090485	-0.11627	0.2945	-0.004883	-0.020447
47.963	-0.015717	-0.088348	-0.036316	-0.001831	-0.010376	0.056915	0.016785	-0.018311	-0.24078	0.013885	-0.016022	-0.00412	-0.017853	0.045929	0.039825	0.002441	0.002747	-0.054321	0.16495	-0.041656	0.0383	0.002747	-0.15472	0.00824	-0.041199	0.021362	0.068207	0.032654	-0.10361	0.24307	-0.003204	-0.02121
47.964	-0.01297	-0.038605	-0.010071	0.016937	-0.036926	0.024719	0.10788	-0.010376	-0.19775	0.011139	0.045776	0.003052	-0.011597	0.029907	-0.003052	-0.000763	-0.000305	-0.00946	0.27893	0.027008	0.027008	0.001526	-0.18707	-0.012512	-0.044403	0.01297	0.095825	0.021515	-0.041962	-0.30777	0.000153	-0.022278
47.965	0.001831	0.022736	-0.043488	0.014801	-0.014648	0.010071	0.04837	-0.019073	0.02533	0.020294	0.10574	0.010071	0.005951	0.02594	-0.035248	0.002289	0.012817	-0.031433	0.037842	0.10849	0.035248	0.019836	-0.14954	-0.001221	-0.03418	0.001526	0.054626	0.004272	0.16739	-0.56076	0.004578	-0.025024
47.966	0.032349	-0.009613	-0.049744	0.010223	0.048676	0.032806	0.05722	-0.000458	0.20599	0.004578	0.064697	0.014038	0.012665	0.021057	-0.047607	0.002899	0.00412	-0.010834	0.022125	0.19638	0.030975	0.001221	-0.1622	-0.013123	-0.018768	-0.009308	0.026703	0.006714	0.29953	-0.49881	-0.000305	-0.023499
47.967	0.022888	-0.03418	-0.04837	0.002747	0.055695	0.00351	0.005798	-0.005798	0.23132	0.018005	-0.011444	0.011749	-0.0354	0.049744	-0.029602	0.002441	0.018616	-0.042267	0.056763	0.19653	0.030823	-0.008698	-0.14236	-0.022125	-0.018005	-0.011139	0.036316	0.005951	0.24628	0.087433	0.000305	-0.023346
47.968	0.01236	-0.020752	-0.030823	-0.011139	0.047913	-0.067291	0.044556	-0.010529	0.052032	0.018921	0.023041	0.017853	-0.10559	0.037384	-0.023804	-0.00412	0.014801	-0.024719	0.083923	0.079651	0.022278	0.00061	-0.13519	-0.012817	-0.015717	-0.000153	0.045776	0.006561	0.15488	0.31647	-0.001373	-0.019073
47.969	0.017853	0.007629	-0.037537	0.005035	0.032654	-0.045013	0.046082	-0.028687	-0.1297	0.011292	0.10605	0.020447	-0.07309	0.092926	0.11856	0.009155	0.014038	-0.035095	0.13473	0.003967	0.025787	-0.014801	-0.12253	-0.026245	-0.016174	0.000458	0.033722	-0.003967	0.077057	0.12268	0.000916	-0.017395
47.97	-0.004272	-0.014648	-0.020294	0.016785	0.021973	0.00351	0.079803	-0.033417	-0.19836	0.016632	0.21866	0.026855	-0.043335	0.085144	0.30365	-0.005646	0.010376	-0.016785	0.12314	-0.016785	0.031738	-0.008698	-0.15762	-0.019226	-0.029144	0.000763	0.031586	-0.016785	0.098877	-0.16663	0.00061	-0.021057
47.971	-0.002594	-0.018158	-0.021667	0.009155	0.008392	0.005188	0.074615	-0.023499	-0.19226	0.035858	0.2298	0.032501	-0.036621	0.057526	0.03891	0.00946	0.015869	-0.022888	0.063171	-0.023651	0.027771	0.002594	-0.13641	0.010986	-0.028534	0.009308	0.004578	-0.012817	0.29602	-0.16525	-0.001373	-0.021667
47.972	-0.00824	-0.022736	-0.013733	-0.001526	0.001526	0.005646	0.052795	-0.016022	-0.15442	0.040588	0.12405	0.036469	0.003204	0.071411	-0.035706	-0.015717	0.007629	-0.055084	-0.004425	0.018616	0.033722	-0.00061	-0.1828	0.016632	-0.008392	0.010986	0.017853	-0.025482	0.50949	-0.14526	-0.001068	-0.019989
